<?xml version="1.0" encoding="utf-8"?>
<!-- Generator: Adobe Illustrator 27.2.0, SVG Export Plug-In . SVG Version: 6.00 Build 0)  -->
<svg version="1.1" id="Layer_1" xmlns="http://www.w3.org/2000/svg" xmlns:xlink="http://www.w3.org/1999/xlink" x="0px" y="0px"
	 viewBox="0 0 841.9 595.3" style="enable-background:new 0 0 841.9 595.3;" xml:space="preserve">
<style type="text/css">
	.st0{fill:#B3B2B2;}
</style>
<polygon class="st0" points="163.8,92.8 164,92.7 164.3,92.6 164.4,92.5 164.5,92.5 164.7,92.4 164.8,92.4 165,92.3 165.2,92.2 
	165.1,92 165,91.4 164.7,91.5 164.4,91.6 164.2,91.7 163.9,91.8 163.7,91.9 163.6,92 163.4,92 163.2,92.1 163.1,92.1 163,92.1 
	162.9,92.2 162.6,92.3 162.5,92.3 162.5,92.3 162.4,92.3 162.3,92.4 162.2,92.4 162.1,92.5 161.8,92.6 161.7,92.6 161.6,92.7 
	161.5,92.7 161.4,92.7 160.9,92.9 160.7,92.9 160.6,93 160.5,93 160.2,93.1 160.1,93.1 160.1,93.1 160,93.2 159.9,93.2 159.8,93.2 
	159.7,93.3 159.6,93.3 159.5,93.3 159.4,93.4 159.3,93.4 159.2,93.5 159.1,93.5 158.9,93.6 158.8,93.6 158.7,93.7 158.4,93.8 
	158.3,93.9 158.2,94 158,94 157.9,94.1 157.7,94.2 157.6,94.2 157.5,94.3 157.3,94.4 157.2,94.4 157.1,94.5 156.9,94.5 156.8,94.6 
	156.7,94.7 156.4,94.7 156.2,94.9 155.8,95 154.7,95.4 154.2,95.6 154,95.7 153.8,95.8 153.5,95.9 153.3,95.9 153.1,96 152.7,96.2 
	152.5,96.3 152.3,96.3 152.1,96.4 151.9,96.5 151.7,96.6 151.5,96.6 151.3,96.7 151.1,96.8 150.9,96.8 150.7,96.9 150.1,97.1 
	149.9,97.1 149.7,97.2 149.5,97.3 149.3,97.3 149.1,97.4 148.9,97.5 148.6,97.6 148.3,97.7 148,97.8 147.7,98 147.3,98.1 
	146.9,98.3 146.5,98.5 146,98.8 145.9,99.4 146,99.3 146.2,99.2 146.4,99.1 146.7,99 147.1,98.8 147.3,98.7 147.5,98.6 147.8,98.5 
	147.9,98.4 148.1,98.3 148.3,98.2 148.5,98.2 148.8,98 149,98 149.2,97.9 149.3,97.9 149.6,97.7 149.8,97.7 150,97.6 150.1,97.6 
	150.3,97.5 150.5,97.4 150.7,97.4 150.9,97.3 151.1,97.3 151.5,97.2 151.7,97.1 151.9,97.1 152.1,97 152.3,96.9 152.5,96.9 
	152.7,96.8 152.9,96.7 153.1,96.7 153.3,96.6 153.5,96.5 153.7,96.4 153.9,96.3 154.1,96.2 154.3,96.2 154.5,96.1 155.2,95.8 
	155.8,95.6 156.2,95.5 156.6,95.4 156.9,95.2 157.1,95.2 157.2,95.1 157.4,95 157.5,94.9 157.9,94.7 158.2,94.6 158.3,94.6 
	158.4,94.5 158.6,94.4 158.7,94.4 158.8,94.3 158.9,94.3 159,94.2 159.2,94.2 159.3,94.1 159.4,94.1 159.5,94.1 159.7,94 159.8,94 
	159.9,94 160.3,93.9 160.4,93.9 160.5,93.9 160.5,93.8 160.6,93.8 160.7,93.8 161,93.7 161.1,93.7 161.4,93.6 161.5,93.6 
	161.6,93.5 161.7,93.5 161.8,93.5 161.9,93.5 162,93.4 162.1,93.4 162.1,93.4 162.4,93.2 162.5,93.2 162.7,93.2 162.9,93.1 
	163,93.1 163.1,93 163.2,93 163.4,92.9 163.6,92.8 "/>
</svg>
