<?xml version="1.0" encoding="utf-8"?>
<!-- Generator: Adobe Illustrator 27.2.0, SVG Export Plug-In . SVG Version: 6.00 Build 0)  -->
<svg version="1.1" id="Layer_1" xmlns="http://www.w3.org/2000/svg" xmlns:xlink="http://www.w3.org/1999/xlink" x="0px" y="0px"
	 viewBox="0 0 841.9 595.3" style="enable-background:new 0 0 841.9 595.3;" xml:space="preserve">
<style type="text/css">
	.st0{fill:#B3B2B2;}
</style>
<polygon class="st0" points="162.3,89.6 162.6,89.4 162.7,89.4 162.8,89.3 162.9,89.3 163.1,89.1 163.2,89.1 163.3,89 163.5,88.9 
	163.7,88.8 163.9,88.7 164.2,88.5 164.1,88.1 164.1,87.6 164,87.1 163.9,86.7 163.9,86.5 163.6,86.7 163.3,86.8 163.1,86.9 
	162.9,87 162.7,87.1 162.5,87.2 162.3,87.3 162.1,87.4 162,87.4 161.8,87.5 161.7,87.6 161.6,87.7 161.1,87.9 160.7,88.1 
	160.6,88.2 160.6,88.2 160.5,88.2 160.4,88.3 160.3,88.3 160.2,88.4 160.2,88.4 160.1,88.5 160,88.6 159.9,88.6 159.8,88.7 
	159.8,88.7 159.7,88.8 159.6,88.8 159.5,88.9 159.5,89 159.4,89 159.2,89.2 159.1,89.3 159,89.4 158.8,89.5 158.7,89.6 158.6,89.7 
	158.6,89.7 158.5,89.8 158.4,89.8 158,90.1 157.9,90.2 157.8,90.3 157.7,90.3 157.6,90.4 157.5,90.4 157.4,90.5 157.4,90.5 
	157.3,90.6 157.2,90.6 157.1,90.7 157,90.7 156.9,90.7 156.8,90.8 156.7,90.8 156.6,90.8 156.6,90.9 156.3,91 156.2,91 156.1,91 
	156,91.1 155.9,91.1 155.7,91.2 155.5,91.2 155.3,91.3 155,91.5 154.6,91.6 154.1,91.8 154,91.9 153.8,92 153.6,92.1 152.9,92.4 
	152.7,92.5 152.5,92.6 152.4,92.7 152.2,92.7 152.1,92.8 151.9,92.9 151.4,93.1 151.2,93.2 150.6,93.5 150.4,93.5 150.3,93.6 
	150.1,93.7 149.9,93.8 149.7,93.9 149.6,93.9 149.4,94 149.2,94.1 149,94.2 148.8,94.2 148.6,94.3 148,94.6 147.8,94.7 147.5,94.7 
	147.3,94.8 147,95 146.8,95.1 146.5,95.2 146.3,96.4 147.5,95.9 148.1,95.6 148.4,95.5 148.9,95.2 149.7,94.9 149.9,94.8 
	150.1,94.7 150.3,94.6 150.5,94.5 150.7,94.4 150.9,94.3 151.1,94.3 151.2,94.2 151.4,94.1 151.6,94 151.8,94 152,93.9 152.1,93.9 
	152.3,93.8 152.5,93.7 152.7,93.7 153,93.6 153.2,93.5 153.4,93.5 153.5,93.4 153.7,93.3 153.9,93.3 154,93.2 154.1,93.2 
	154.4,93.1 154.7,93 155,92.9 155.3,92.8 155.5,92.7 155.8,92.6 156.3,92.4 156.5,92.4 156.7,92.3 156.9,92.2 157,92.2 157.2,92.1 
	157.3,92.1 157.4,92 157.6,92 157.7,91.9 157.8,91.8 158.1,91.7 158.3,91.6 158.4,91.6 158.5,91.5 158.6,91.5 158.7,91.5 
	158.8,91.4 158.9,91.4 159,91.4 159.1,91.3 159.2,91.3 159.3,91.2 159.4,91.2 159.5,91.1 159.6,91.1 159.7,91 160,90.9 160.2,90.8 
	160.7,90.5 160.9,90.5 160.9,90.4 161,90.4 161.1,90.4 161.1,90.3 161.2,90.3 161.2,90.2 161.3,90.2 161.4,90.2 161.4,90.1 
	161.6,90 161.8,89.9 162,89.8 162.1,89.7 162.2,89.6 "/>
</svg>
