<?xml version="1.0" encoding="utf-8"?>
<!-- Generator: Adobe Illustrator 27.2.0, SVG Export Plug-In . SVG Version: 6.00 Build 0)  -->
<svg version="1.1" id="Layer_1" xmlns="http://www.w3.org/2000/svg" xmlns:xlink="http://www.w3.org/1999/xlink" x="0px" y="0px"
	 viewBox="0 0 841.9 935.4" style="enable-background:new 0 0 841.9 935.4;" xml:space="preserve">
<style type="text/css">
	.st0{fill:#B3B2B2;}
</style>
<polygon class="st0" points="240.8,906.2 240.8,906.2 240,906.3 239.2,906.5 238.6,906.7 238,906.9 237.4,907.1 236.9,907.3 
	236.4,907.4 235.9,907.6 235.5,907.7 235.1,907.9 234.7,908 234.3,908.1 234,908.2 233.9,908.2 233.8,908.2 233.7,908.3 
	233.5,908.3 233.4,908.4 233.1,908.4 233,908.5 232.9,908.5 232.7,908.6 232.6,908.6 232.4,908.7 232.3,908.7 232.1,908.7 
	232,908.8 231.8,908.8 231.7,908.9 231.5,908.9 231.3,908.9 231.2,909 231,909 230.9,909.1 230.7,909.1 230.6,909.1 230.4,909.1 
	230.3,909.2 230.1,909.2 229.9,909.2 229.8,909.2 229.7,909.2 229.6,909.2 229.5,909.3 229.4,909.3 229.3,909.3 229.3,909.3 
	229.2,909.4 229,909.4 228.6,909.5 228.5,909.6 228.4,909.6 228.3,909.7 228.1,909.7 227.7,909.9 227.6,909.9 227.6,909.9 
	227.5,910 227.4,910 227.4,910 227.3,910 227.3,910.1 227.2,910.1 227.1,910.1 227.1,910.1 227,910.2 227,910.2 226.7,910.3 
	226.7,910.3 226.6,910.4 226.5,910.4 226.4,910.5 226.3,910.5 226.1,910.6 226,910.6 225.9,910.7 225.7,910.8 225.5,910.8 
	225.4,910.9 225.2,911 225,911 224.7,911.1 224.5,911.2 224.3,911.3 224,911.4 223.7,911.5 223.5,911.6 223.2,911.7 222.9,911.7 
	222.7,911.8 222.4,911.9 222.1,912 221.8,912.1 221.5,912.1 221.3,912.2 220.9,912.3 220.6,912.5 220.3,912.6 219.9,912.7 
	219.6,912.8 219.1,913 218.7,913.1 218.2,913.3 217.7,913.4 217.1,913.5 220,914.4 222.6,915.2 223.7,915.6 224.9,915.2 
	226.1,914.8 227.1,914.4 227.8,914.2 227.1,912.3 227.3,912.3 227.4,912.2 227.5,912.2 227.6,912.2 227.7,912.1 227.8,912.1 
	228,912 228.1,912 228.4,911.9 228.5,911.9 228.5,911.9 228.6,911.9 228.6,911.8 228.7,911.8 228.8,911.8 228.9,911.7 229,911.7 
	229.1,911.6 229.7,913.4 230.3,913.3 230.8,913.1 231.3,913 231.7,912.9 232.1,912.8 232.4,912.8 232.7,912.7 233,912.7 
	233.3,912.6 233.5,912.6 234.2,912.4 234.4,912.4 234.6,912.4 234.8,912.3 235,912.3 235.4,912.2 235.9,912.1 236.3,912 
	236.6,911.8 236.8,911.8 237,911.7 237.3,911.7 237.5,911.6 237.8,911.6 238.1,911.5 238.4,911.5 238.8,911.4 240,911.2 "/>
</svg>
