<?xml version="1.0" encoding="utf-8"?>
<!-- Generator: Adobe Illustrator 27.2.0, SVG Export Plug-In . SVG Version: 6.00 Build 0)  -->
<svg version="1.1" id="Layer_1" xmlns="http://www.w3.org/2000/svg" xmlns:xlink="http://www.w3.org/1999/xlink" x="0px" y="0px"
	 viewBox="0 0 841.9 595.3" style="enable-background:new 0 0 841.9 595.3;" xml:space="preserve">
<style type="text/css">
	.st0{fill:#B3B2B2;}
</style>
<polygon class="st0" points="188.5,80.1 188.7,79.8 188.8,79.7 188.9,79.5 189,79.3 189.1,79.2 189.2,79.2 189.2,79.1 189.3,79 
	189.4,79 189.4,78.9 189.5,78.9 189.5,78.8 189.6,78.8 189.7,78.7 189.7,78.7 189.8,78.6 189.9,78.6 189.9,78.5 190,78.5 
	190.1,78.4 190.1,78.4 190.2,78.3 190.3,78.3 190.5,78.2 190.6,78.1 190.6,78.1 190.7,78 190.7,78 190.8,78 190.9,77.9 190.9,77.9 
	191,77.8 191,77.8 191.1,77.7 191.1,77.7 191.2,77.6 191.3,77.5 191.4,77.4 191.5,77.4 191.5,77.3 191.6,77.2 191.7,77.2 
	191.8,77.1 192,77 192.2,76.8 192.4,76.7 192.7,76.5 193.1,76.3 193.4,76.1 193.6,76 193.9,75.8 194.1,75.6 194.4,75.5 194.6,75.3 
	194.9,75.2 195.2,75 195.4,74.9 195.7,74.7 196,74.5 196.3,74.4 196.7,74.2 197.1,74 197.5,73.8 198,73.5 198.5,73.2 198.1,73.1 
	197.7,72.9 197.2,73.1 196.8,73.3 196.4,73.5 196.1,73.7 195.7,73.9 195.4,74.1 194.8,74.5 194.5,74.7 194.2,74.9 193.9,75 
	193.7,75.2 193.4,75.3 193.1,75.4 192.8,75.6 192.6,75.7 192.3,75.8 192,76 191.8,76.1 191.6,76.2 191.4,76.3 191.2,76.4 
	191.1,76.4 191,76.5 190.9,76.6 190.8,76.6 190.7,76.7 190.6,76.8 190.5,76.8 190.4,76.9 190.3,77 190.3,77.1 190.2,77.1 
	190.1,77.2 190,77.3 189.8,77.4 189.7,77.6 189.5,77.7 189.4,77.8 189.2,78 189.1,78 189.1,78.1 189,78.2 188.9,78.2 188.9,78.3 
	188.8,78.4 188.7,78.5 188.6,78.6 188.5,78.7 188.4,78.8 188.3,79 188.1,79.2 188,79.4 187.8,79.7 187.5,80.1 187.5,80.1 
	187.3,80.3 187.2,80.4 187.1,80.6 186.9,80.7 186.8,80.9 186.4,81.3 186.3,81.4 186.2,81.6 186.1,81.7 186,81.8 185.9,81.9 
	185.7,82 185.6,82.1 185.5,82.2 185.3,82.3 185.1,82.4 185,82.5 184.8,82.6 184.6,82.7 184.4,82.8 183.9,83 183.7,83.2 183.5,83.3 
	183.2,83.4 183,83.5 182.7,83.6 182.5,83.8 182.2,83.9 182,84 181.7,84.1 181.5,84.1 181.3,84.2 181.1,84.3 180.8,84.4 180.4,84.5 
	179.7,84.8 179.5,84.8 179.3,84.9 179.1,85 178.8,85 178.6,85.1 178.4,85.2 178,85.3 177.8,85.4 177.6,85.4 177.4,85.5 177.2,85.5 
	177,85.6 176.8,85.7 176.6,85.8 176.4,85.9 176.2,86 176,86.1 175.8,86.2 175.6,86.3 174.9,86.6 174.7,86.8 174.4,86.9 174.1,87.1 
	173.8,87.2 173.4,87.4 172.8,87.7 173.1,89.1 174,88.6 174.8,88.1 175.7,87.7 176.5,87.2 177.4,86.8 177.8,86.6 178.7,86.1 
	179.5,85.6 180.3,85.3 181,84.9 181.6,84.7 182.3,84.4 182.8,84.2 183.3,84 183.8,83.8 184.2,83.6 184.6,83.4 185,83.2 185.3,83.1 
	185.5,82.9 185.8,82.7 186,82.5 186.3,82.4 186.5,82.2 186.7,82 186.9,81.9 187,81.7 187.2,81.5 187.4,81.4 187.5,81.2 187.7,81 
	187.8,80.9 188,80.7 188,80.6 188.3,80.3 "/>
</svg>
