<?xml version="1.0" encoding="utf-8"?>
<!-- Generator: Adobe Illustrator 27.2.0, SVG Export Plug-In . SVG Version: 6.00 Build 0)  -->
<svg version="1.1" id="Layer_1" xmlns="http://www.w3.org/2000/svg" xmlns:xlink="http://www.w3.org/1999/xlink" x="0px" y="0px"
	 viewBox="0 0 841.9 935.4" style="enable-background:new 0 0 841.9 935.4;" xml:space="preserve">
<style type="text/css">
	.st0{fill:#B3B2B2;}
</style>
<polygon class="st0" points="257.9,907.4 258.1,906.4 258.1,906 256.7,905.6 254.5,904.9 253.6,905 252.8,905.1 252.2,905.2 
	251.6,905.3 250.8,905.4 250.5,905.4 250.1,905.4 249.8,905.5 249.6,905.5 249.3,905.5 249,905.5 248.7,905.5 248.5,905.5 
	248.2,905.6 248,905.6 247.7,905.6 246.7,905.6 246.5,905.6 246.2,905.6 245.9,905.6 245.6,905.6 245.3,905.6 244.9,905.7 
	244.5,905.7 244,905.7 243.5,905.8 242.9,905.8 242.2,905.9 241.7,908.9 241.5,910.9 241.9,910.8 242.3,910.8 242.6,910.7 
	243,910.6 243.3,910.6 243.6,910.6 243.9,910.5 244.2,910.5 244.4,910.5 244.6,910.4 244.9,910.4 245.1,910.4 245.3,910.3 
	245.5,910.3 245.7,910.3 246,910.3 246.2,910.2 246.4,910.2 246.6,910.2 246.9,910.2 247.6,910.1 247.8,910.1 248,910.1 248.2,910 
	248.5,910 248.7,910 248.9,910 249.1,909.9 250.1,909.8 250.4,909.8 250.6,909.8 250.9,909.7 251.1,909.7 251.3,909.7 251.6,909.7 
	251.8,909.6 252,909.6 252.2,909.6 252.4,909.5 252.6,909.5 254,909.4 255.2,909.3 256.2,909.3 256.6,909.3 257.1,909.3 
	257.5,909.2 257.7,908.4 "/>
</svg>
