<?xml version="1.0" encoding="utf-8"?>
<!-- Generator: Adobe Illustrator 27.2.0, SVG Export Plug-In . SVG Version: 6.00 Build 0)  -->
<svg version="1.1" id="Layer_1" xmlns="http://www.w3.org/2000/svg" xmlns:xlink="http://www.w3.org/1999/xlink" x="0px" y="0px"
	 viewBox="0 0 841.9 595.3" style="enable-background:new 0 0 841.9 595.3;" xml:space="preserve">
<style type="text/css">
	.st0{fill:#B3B2B2;}
</style>
<polygon class="st0" points="188.8,76.6 188.9,76.6 189,76.5 189,76.5 189.1,76.4 189.2,76.4 189.2,76.4 189.3,76.3 189.4,76.3 
	189.4,76.2 189.5,76.2 189.5,76.1 189.6,76.1 189.6,76 189.6,75.9 189.7,75.9 189.7,75.8 189.7,75.8 189.8,75.7 189.8,75.6 
	189.8,75.6 189.8,75.5 189.8,75.5 189.8,75.4 189.8,75.3 189.8,75.3 189.8,75.2 189.7,75.1 189.7,75.1 189.7,75 189.6,75 
	189.6,74.9 189.5,74.8 189.5,74.8 189.4,74.7 189.4,74.7 189.3,74.7 189.2,74.6 189.2,74.6 189.1,74.6 189,74.5 188.9,74.5 
	188.8,74.5 188.8,74.5 188.7,74.5 188.6,74.5 188.5,74.5 188.5,74.5 188.4,74.5 188.3,74.5 188.2,74.5 188.2,74.6 188.1,74.6 
	188,74.6 188,74.6 187.9,74.6 187.8,74.7 187.7,74.7 187.7,74.7 187.6,74.7 187.5,74.8 187.4,74.8 187.4,74.8 187.3,74.9 
	187.2,74.9 187.1,74.9 187.1,75 187,75 186.9,75.1 186.8,75.1 186.7,75.2 186.6,75.3 186.4,75.4 186.3,75.4 186.2,75.5 186,75.6 
	185.8,75.8 185.5,75.9 185.2,76.1 184.9,76.4 184.4,76.7 183.8,77.1 183.7,77.2 183.5,77.3 183.3,77.4 183.1,77.5 183,77.7 
	182.8,77.8 182.7,77.9 182.5,78 182.3,78.1 181.9,78.5 181.7,78.6 181.6,78.7 181.4,78.8 181.2,78.9 181.1,79 180.9,79.1 
	180.7,79.3 180.5,79.4 180.3,79.5 180.1,79.6 179.8,79.7 179.6,79.8 179.4,79.9 179.2,80 179,80.1 178.5,80.3 178.3,80.4 
	178.1,80.5 177.9,80.6 177.7,80.7 177.6,80.7 177.4,80.8 177.3,80.9 177.1,81 176.9,81.1 176.7,81.2 176.5,81.3 176.2,81.4 
	175.9,81.6 175.6,81.7 175.2,81.9 174.7,82 174.2,82.3 173.6,82.5 172.8,82.8 172,83.2 172.1,83.9 172.2,84.8 172.3,84.9 173,84.5 
	173.7,84.2 174.3,83.9 174.8,83.7 175.3,83.5 175.7,83.3 176.1,83.2 176.4,83 176.8,82.9 177.1,82.7 177.4,82.6 177.7,82.5 
	177.9,82.4 178.2,82.3 179,81.9 179.2,81.8 179.5,81.7 179.7,81.6 180,81.5 180.2,81.4 180.5,81.2 180.8,81.1 181,81 181.3,80.8 
	181.6,80.7 181.8,80.5 182.1,80.4 182.3,80.2 182.8,79.9 183.1,79.8 183.3,79.6 183.5,79.5 183.8,79.3 184,79.2 184.2,79.1 
	184.3,79 184.9,78.7 185.4,78.4 185.8,78.2 186.2,78 186.5,77.8 187.2,77.4 187.3,77.3 187.5,77.2 187.6,77.2 187.8,77.1 
	187.9,77.1 188,77 188.1,77 188.2,76.9 188.5,76.7 188.6,76.7 188.7,76.7 "/>
</svg>
